<?xml version="1.0" encoding="utf-8"?>
<!-- Generator: Adobe Illustrator 25.3.1, SVG Export Plug-In . SVG Version: 6.00 Build 0)  -->
<svg version="1.1" id="Layer_1" xmlns="http://www.w3.org/2000/svg" xmlns:xlink="http://www.w3.org/1999/xlink" x="0px" y="0px"
	 viewBox="0 0 512 512" style="enable-background:new 0 0 512 512;" xml:space="preserve">
<style type="text/css">
	.st0{fill:none;}
	.st1{fill:#1D1D1B;}
</style>
<path class="st0" d="M0,0h512v512H0V0z"/>
<g transform="translate(0,0)">
	<path class="st1" d="M218.5,26.8c-36,0-72.6,10-102.1,28.2C74.6,80.6,47,121.2,51.1,172.7l9,27.7c15.8-42.6,42-79.2,75.8-103.8
		c36.9-26.9,83.1-39.1,132.7-29l-10.2-36.3c-10.7-2.4-21.6-3.9-32.7-4.3C223.3,26.8,220.9,26.8,218.5,26.8L218.5,26.8z M279.5,39.8
		l8.5,30l18-0.5l-3.4-20.9L279.5,39.8z M321.9,55.2l3.6,22.2c5.8,3.5,9.5,6.8,11.3,9.3c3,4.1,2.8,5.6,0.6,9.8
		c-4.4,8.5-23.5,22.3-46.9,35.7c-23.4,13.4-50.8,27.4-72.4,42.9c-10.9,7.8-20.3,15.9-27.2,25c-6.8,9.1-11.1,19.7-9.8,31
		c7,62.8,61.8,105.2,113.1,132.1c30.7,16,60.6,26.7,79.7,32.7c2.8,2.7,11.9,11.2,23.8,19.8c14.2,10.2,31.5,21.5,49.5,19
		c10.5-1.4,21.4-6.8,30.2-14.4c4.4-3.8,8.2-8.3,10.7-13.7c2.4-5.4,3.3-12.1,0.8-18.4c-4.6-11.7-16.3-17.3-27.9-19.4
		c-5.9-1-12-1.3-18.3-1.2c-6.2,0.2-12.6,0.7-18.8,1.6c-20.1,2.6-38.2,7.7-44.6,9.6c-18.4-5.8-47.3-16.1-76.7-31.6
		c-49-25.7-97.7-64.8-103.7-118.1c-0.6-5.7,1.4-11.5,6.4-18.2c5.1-6.8,13.3-14,23.2-21.1c20-14.3,47-28.3,70.9-42
		c23.9-13.6,45-25.8,54-43c4.5-8.6,4.3-19.9-2-28.6C345.5,68,336,61.5,321.9,55.2L321.9,55.2z M39.7,195.7l-12.8,34.8L43.4,245
		l6.9-16.6L39.7,195.7z M22.8,251c-1.3,8.4-1.6,18-0.8,28.4c1.6,21.2,8.3,45.3,24.4,65.1c45.9,56.3,82.3,75.5,121.7,82.2
		c35.9,6,73.2,2.5,125.2,10.4c3.7,4.9,9.2,12,15.9,19.3c11.9,13,26.5,27.5,44.7,28.7c10.6,0.6,22.4-2.5,32.5-8.2
		c5-2.9,9.7-6.4,13.2-11.2c3.4-4.8,5.6-11.3,4.5-18c-2.2-12.4-12.5-20.1-23.5-24.5c-11-4.3-23.9-6.2-36.4-7.1
		c-6.2-0.4-12.4-0.6-18.1-0.6c-17.3,0-30.7,1.5-30.7,1.5l-8.8,0.9c-49.1-6.4-84.7-3.8-115.5-9c-35.8-6-66.5-21.5-110.8-75.8
		C47.3,317,41.3,296.5,40,278c-0.3-4.2-0.3-8.2-0.2-12.1L22.8,251z M443.1,385.6h4c3.9,0,7.5,0.3,10.7,0.9
		c8.6,1.5,12.7,4.2,14.3,8.2c0.5,1.3,0.6,2.3-0.4,4.4s-3.1,4.9-6.1,7.5c-6,5.2-15.3,9.4-20.8,10.2c-7.4,1-23.6-6.5-36.6-15.8
		c-4-2.9-7.5-5.8-10.8-8.5c8.1-2,18.3-4.2,28.9-5.6C432,386.2,437.7,385.7,443.1,385.6L443.1,385.6z M326.3,433.5
		c5.3,0,11,0.2,16.8,0.6c11.4,0.8,22.9,2.7,31,5.9c8,3.1,11.6,6.6,12.3,10.9c0.3,1.3,0.1,2.3-1.3,4.2c-1.4,1.9-4,4.2-7.5,6.1
		c-6.9,4-16.9,6.3-22.4,5.9c-7.4-0.5-21.8-11.1-32.6-22.8c-3.4-3.7-6.3-7.2-8.9-10.5C317.5,433.7,321.6,433.5,326.3,433.5
		L326.3,433.5z"/>
</g>
</svg>
